{"title":"Jai Ho (2014) NonRetail DVDRip - Xvid - 1CD{MaXX Releasers}","uid":9524401,"size":740180554,"categoryP":"video","categoryS":"movies","magnet":"?xt=urn:btih:9a5cc130cc257814540c34ab6115c4d9721d3c91&amp;dn=Jai+Ho+%282014%29+NonRetail+DVDRip+-+Xvid+-+1CD%7BMaXX+Releasers%7D&amp;tr=udp%3A%2F%2Ftracker.openbittorrent.com%3A80&amp;tr=udp%3A%2F%2Fopen.demonii.com%3A1337&amp;tr=udp%3A%2F%2Ftracker.coppersurfer.tk%3A6969&amp;tr=udp%3A%2F%2Fexodus.desync.com%3A6969","seeders":1,"leechers":0,"uploader":"shailendramaxx","files":25,"time":1390713802,"description":"MAXX RELEASERS PRESENTS\n\n\nComplete name : Jai Ho (2014) NonRetail DVDRip - Xvid - 1CD{MaXX Releasers} \nFormat : Matroska \nFormat version : Version 2 \nFile size : 697 MiB \nDuration : 2h 17mn \nOverall bit rate : 709 Kbps \nEncoded date : UTC 2014-01-25 11:57:45 \nWriting application : mkvmerge v6.5.0 ('Isn't she lovely') built on Oct 20 2013 12:50:05 \nWriting library : libebml v1.3.0 + libmatroska v1.4.1 \n\nVideo:-\n \nID : 1 \nFormat : AVC \nFormat/Info : Advanced Video Codec \nFormat profile : &lt;a class=&quot;__cf_email__&quot; href=&quot;/cdn-cgi/l/email-protection&quot; data-cfemail=&quot;83cbeae4ebc3cfb1adb2&quot;&gt;[email&amp;#160;protected]&lt;/a&gt;&lt;script cf-hash='f9e31' type=&quot;text/javascript&quot;&gt;\n/* &lt;![CDATA[ */!function(){try{var t=&quot;currentScript&quot;in document?document.currentScript:function(){for(var t=document.getElementsByTagName(&quot;script&quot;),e=t.length;e--;)if(t[e].getAttribute(&quot;cf-hash&quot;))return t[e]}();if(t&amp;&amp;t.previousSibling){var e,r,n,i,c=t.previousSibling,a=c.getAttribute(&quot;data-cfemail&quot;);if(a){for(e=&quot;&quot;,r=parseInt(a.substr(0,2),16),n=2;a.length-n;n+=2)i=parseInt(a.substr(n,2),16)^r,e+=String.fromCharCode(i);e=document.createTextNode(e),c.parentNode.replaceChild(e,c)}}}catch(u){}}();/* ]]&gt; */&lt;/script&gt; \nFormat settings, CABAC : Yes \nFormat settings, ReFrames : 5 frames \nCodec ID : V_MPEG4/ISO/AVC \nDuration : 2h 17mn \nBit rate : 643 Kbps \nWidth : 608 pixels \nHeight : 256 pixels \nDisplay aspect ratio : 2.40:1 \nFrame rate mode : Constant \nFrame rate : 23.976 fps \nColor space : YUV \nChroma subsampling : 4:2:0 \nBit depth : 8 bits \nScan type : Progressive \nBits/(Pixel*Frame) : 0.172 \nStream size : 620 MiB (89%) \nWriting library : x264 core 138 r2358 9e941d1 \nDefault : Yes \nForced : No \n\nAudio:-\n\nID : 2 \nFormat : MPEG Audio \nFormat version : Version 2 \nFormat profile : Layer 3 \nMode : Joint stereo \nMode extension : MS Stereo \nCodec ID : A_MPEG/L3 \nCodec ID/Hint : MP3 \nDuration : 2h 17mn \nBit rate mode : Constant \nBit rate : 64.0 Kbps \nChannel(s) : 2 channels \nSampling rate : 24.0 KHz \nCompression mode : Lossy \nStream size : 63.0 MiB (9%) \nWriting library : LAME3.99r \nEncoding settings : -m j -V 4 -q 2 -lowpass 11 -b 64 \nDefault : Yes \nForced : No \n\n\nSCREENS:-\n\n[URL=http://imgur.com/nW0RZz2][IMG]http://i.imgur.com/nW0RZz2.jpg[/IMG][/URL]\n\n[URL=http://imgur.com/Cd7dzNl][IMG]http://i.imgur.com/Cd7dzNl.jpg[/IMG][/URL]\n\n[URL=http://imgur.com/W4r0N5O][IMG]http://i.imgur.com/W4r0N5O.jpg[/IMG][/URL]\n\n[URL=http://imgur.com/Vrz4ul2][IMG]http://i.imgur.com/Vrz4ul2.jpg[/IMG][/URL]\n\n[URL=http://imgur.com/2Y2imFn][IMG]http://i.imgur.com/2Y2imFn.jpg[/IMG][/URL]\n\n[URL=http://imgur.com/cEZg7b6][IMG]http://i.imgur.com/cEZg7b6.jpg[/IMG][/URL]\n\n[URL=http://imgur.com/esreffj][IMG]http://i.imgur.com/esreffj.jpg[/IMG][/URL]\n\n[URL=http://imgur.com/0kWIBG2][IMG]http://i.imgur.com/0kWIBG2.jpg[/IMG][/URL]\n\n\nLANGUAGE:-   HINDI\n\nSAMPLE AND SCREENSHOTS INCLUDED\n\n ********** PLEASE SEED AS LONG AS YOU CAN AFTER DOWNLOAD **********\n       \n                     ***** THANK YOU REGARDS - VIKKYMAXX *****\t","torrent":{"xt":"urn:btih:9a5cc130cc257814540c34ab6115c4d9721d3c91","amp;dn":"Jai+Ho+%282014%29+NonRetail+DVDRip+-+Xvid+-+1CD%7BMaXX+Releasers%7D","amp;tr":["udp%3A%2F%2Ftracker.openbittorrent.com%3A80","udp%3A%2F%2Fopen.demonii.com%3A1337","udp%3A%2F%2Ftracker.coppersurfer.tk%3A6969","udp%3A%2F%2Fexodus.desync.com%3A6969"],"infoHash":"9a5cc130cc257814540c34ab6115c4d9721d3c91","infoHashBuffer":{"type":"Buffer","data":[154,92,193,48,204,37,120,20,84,12,52,171,97,21,196,217,114,29,60,145]},"announce":[],"urlList":[]}}